<svg width="24" height="24" viewBox="0 0 24 24" fill="none" xmlns="http://www.w3.org/2000/svg">
<path d="M11.6246 10.2776C11.5046 9.99076 11.216 9.80696 10.9403 9.69384L9.07739 8.83615L8.18238 8.08136L6.74789 9.50818L7.34853 13.5239C7.35068 13.5378 7.34714 13.5521 7.33882 13.5635L6.70406 14.4321C6.69395 14.446 6.67785 14.4543 6.6607 14.4543C6.64355 14.4543 6.62745 14.446 6.61733 14.4321L5.98263 13.5635C5.97426 13.5522 5.97083 13.5379 5.97286 13.5239L6.57351 9.50818L5.13907 8.0813L4.24407 8.83615L2.38117 9.69384C2.10547 9.80696 1.77512 10.0653 1.69682 10.2776C1.69682 10.2776 -0.328022 15.0986 0.770256 15.0986H12.5513C13.6495 15.0986 11.6246 10.2776 11.6246 10.2776Z" fill="#607D8B"/>
<path d="M6.66064 8.05416C8.56586 8.05416 9.98768 6.27897 10.0201 3.30204C10.0407 1.23628 9.05693 0 6.66064 0C4.26424 0 3.28024 1.23628 3.30128 3.30204C3.33354 6.27897 4.75531 8.05416 6.66064 8.05416Z" fill="#607D8B"/>
<path d="M22.3031 19.1789C22.1831 18.892 21.8945 18.7082 21.6189 18.5951L19.7559 17.7374L18.8609 16.9827L17.4256 18.4104L18.0271 22.4321C18.0292 22.4459 18.0258 22.4602 18.0174 22.4717L17.3827 23.3403C17.3725 23.3542 17.3565 23.3624 17.3393 23.3624C17.3221 23.3624 17.3061 23.3542 17.296 23.3403L16.6613 22.4717C16.6529 22.4604 16.6495 22.4461 16.6516 22.4321L17.2531 18.4104L15.8178 16.9827L14.9228 17.7374L13.0599 18.5951C12.7842 18.7082 12.4666 18.9637 12.3756 19.1789C12.3756 19.1789 10.3507 24 11.449 24H23.2301C24.328 23.9999 22.3031 19.1789 22.3031 19.1789Z" fill="#607D8B"/>
<path d="M13.9798 12.2035C14.0121 15.1804 15.4338 16.9556 17.3391 16.9556C19.2444 16.9556 20.6662 15.1804 20.6987 12.2035C20.7193 10.1376 19.7355 8.90137 17.3391 8.90137C14.9427 8.90143 13.9587 10.1377 13.9798 12.2035Z" fill="#607D8B"/>
<path d="M9.4386 22.2964C7.02691 22.2964 4.85837 20.9079 3.83322 18.7747L4.36963 18.6717C4.50576 18.6456 4.61754 18.5489 4.663 18.4179C4.7084 18.287 4.68055 18.1419 4.58982 18.0369L3.00506 16.2052C2.93066 16.1192 2.82318 16.071 2.7118 16.071C2.68751 16.071 2.66303 16.0733 2.63862 16.078C2.5026 16.1041 2.3907 16.2008 2.34525 16.3318L1.55104 18.6201C1.50564 18.7511 1.53348 18.8963 1.62422 19.0011C1.7149 19.106 1.85476 19.1545 1.9906 19.1283L2.65769 19.0003C3.81543 21.69 6.47207 23.4601 9.4386 23.4601C9.75993 23.4601 10.0205 23.1997 10.0205 22.8782C10.0204 22.5569 9.75993 22.2964 9.4386 22.2964Z" fill="#607D8B"/>
<path d="M11.704 1.85606C14.1157 1.85606 16.2842 3.24451 17.3094 5.37782L16.773 5.48077C16.6369 5.50687 16.525 5.60354 16.4796 5.7345C16.4342 5.8654 16.462 6.01061 16.5528 6.11547L18.1376 7.94722C18.2119 8.03325 18.3195 8.08132 18.4308 8.08132C18.4551 8.08132 18.4796 8.07911 18.504 8.0744C18.6401 8.0483 18.7519 7.95152 18.7974 7.82061L19.5916 5.53233C19.637 5.40137 19.6092 5.25616 19.5184 5.15136C19.4277 5.04649 19.2879 4.99795 19.152 5.02417L18.4849 5.15223C17.3271 2.46251 14.6704 0.692383 11.704 0.692383C11.3826 0.692383 11.1221 0.952798 11.1221 1.27425C11.1221 1.59558 11.3826 1.85606 11.704 1.85606Z" fill="#607D8B"/>
</svg>
