<svg width="48" height="48" viewBox="0 0 48 48" fill="none" xmlns="http://www.w3.org/2000/svg">
<path d="M40.7997 13.2002C40.7997 11.6089 40.1675 10.0828 39.0423 8.95755C37.9171 7.83234 36.391 7.2002 34.7997 7.2002H13.1997C11.6084 7.2002 10.0822 7.83234 8.95702 8.95755C7.8318 10.0828 7.19966 11.6089 7.19966 13.2002V22.217C7.97599 21.9421 8.78123 21.7569 9.59966 21.665V19.2002H16.7997V23.4218C17.7054 24.0273 18.5145 24.766 19.1997 25.613V19.2002H28.7997V28.8002H20.9853C21.2602 29.5765 21.4454 30.3818 21.5373 31.2002H28.7997V38.4002H21.8925L24.2925 40.8002H34.8021C36.3934 40.8002 37.9195 40.1681 39.0447 39.0428C40.1699 37.9176 40.8021 36.3915 40.8021 34.8002L40.7997 13.2002ZM34.7997 38.4002H31.1997V31.2002H38.3997V34.8002L38.3853 35.1482C38.2987 36.039 37.8835 36.8656 37.2206 37.4668C36.5577 38.068 35.6946 38.4008 34.7997 38.4002ZM31.1997 19.2002H38.3997V28.8002H31.1997V19.2002ZM28.7997 16.8002H19.1997V9.6002H28.7997V16.8002ZM31.1997 9.6002H34.7997L35.1477 9.617C36.0384 9.70291 36.8653 10.1175 37.467 10.78C38.0687 11.4425 38.402 12.3053 38.4021 13.2002V16.8002H31.2021V9.6002H31.1997ZM9.59966 16.8002V13.2002L9.61886 12.8546C9.70473 11.9642 10.119 11.1377 10.781 10.5361C11.4429 9.93447 12.3052 9.60083 13.1997 9.6002H16.7997V16.8002H9.59966ZM3.32366 28.5722C2.45863 30.2625 2.19183 32.1961 2.56675 34.0575C2.94168 35.9189 3.93622 37.5984 5.38817 38.8221C6.84013 40.0457 8.66384 40.7413 10.5619 40.7955C12.4599 40.8496 14.3203 40.2591 15.8397 39.1202L21.9429 45.2594C22.1682 45.4844 22.4737 45.6107 22.7921 45.6105C23.1105 45.6102 23.4159 45.4835 23.6409 45.2582C23.8659 45.0329 23.9922 44.7274 23.9919 44.4089C23.9917 44.0905 23.865 43.7852 23.6397 43.5602L17.5197 37.4402C18.2185 36.5096 18.7164 35.444 18.9818 34.3109C19.2471 33.1778 19.2741 32.0019 19.061 30.8578C18.8479 29.7137 18.3994 28.6263 17.744 27.6647C17.0885 26.7031 16.2404 25.8881 15.2534 25.2716C14.2663 24.655 13.162 24.2502 12.0103 24.083C10.8586 23.9157 9.68471 23.9896 8.56308 24.2999C7.44144 24.6102 6.39653 25.1502 5.4946 25.8857C4.59266 26.6211 3.85339 27.536 3.32366 28.5722ZM15.7893 29.0666C16.2356 29.7215 16.5477 30.4583 16.7077 31.2345C16.8676 32.0107 16.8722 32.811 16.7212 33.589C16.5702 34.367 16.2665 35.1073 15.8278 35.7673C15.389 36.4273 14.8238 36.9938 14.1649 37.4342C13.506 37.8745 12.7663 38.1799 11.9887 38.3328C11.2111 38.4857 10.4109 38.4831 9.63426 38.325C8.85767 38.1669 8.12009 37.8565 7.46412 37.4117C6.80815 36.967 6.24679 36.3967 5.81246 35.7338C4.94554 34.4107 4.63621 32.7987 4.95177 31.2486C5.26732 29.6986 6.18223 28.3359 7.49743 27.4569C8.81264 26.578 10.4217 26.2541 11.9746 26.5555C13.5274 26.857 14.8984 27.7594 15.7893 29.0666Z" fill="black"/>
</svg>
