<svg width="32" height="32" viewBox="0 0 32 32" fill="none" xmlns="http://www.w3.org/2000/svg">
<g clip-path="url(#clip0_2_8851)">
<path d="M16 0.6875C7.55625 0.6875 0.6875 7.55625 0.6875 16C0.6875 24.4438 7.55625 31.3125 16 31.3125C24.4438 31.3125 31.3125 24.4438 31.3125 16C31.3125 7.55625 24.4438 0.6875 16 0.6875ZM16 28.7625C8.9625 28.7625 3.2375 23.0375 3.2375 16C3.2375 8.9625 8.9625 3.2375 16 3.2375C23.0375 3.2375 28.7625 8.9625 28.7625 16C28.7625 23.0375 23.0375 28.7625 16 28.7625Z" fill="white"/>
<path d="M16.8 14.05V9.89377C17.4875 10.1938 17.9125 10.7563 18.075 11.5938L20.7625 11.2438C20.5812 10.1813 20.15 9.33127 19.4875 8.70002C18.8187 8.06252 17.925 7.68127 16.8 7.54377V6.49377H15.2562V7.54377C14.0375 7.66252 13.0625 8.11877 12.325 8.91252C11.5937 9.70002 11.225 10.6813 11.225 11.8438C11.225 12.9938 11.55 13.9688 12.2 14.775C12.85 15.5813 13.8687 16.1813 15.2562 16.575V21.0313C14.875 20.85 14.525 20.55 14.2125 20.1375C13.9 19.725 13.6875 19.2375 13.575 18.6688L10.8 18.9688C11.0125 20.3625 11.5 21.4438 12.2687 22.2125C13.0375 22.9813 14.0312 23.4375 15.2562 23.5813V25.5188H16.8V23.5313C18.1812 23.3313 19.2625 22.7938 20.0375 21.9125C20.8125 21.0313 21.2 19.95 21.2 18.6688C21.2 17.5188 20.8937 16.5813 20.275 15.8438C19.6562 15.1063 18.5 14.5125 16.8 14.05ZM15.2562 13.5375C13 12.8 13.7437 9.85627 15.2562 9.85627V13.5375ZM16.8 21.175V17.025C19.0625 17.4625 18.8687 20.7438 16.8 21.175Z" fill="white"/>
</g>
<defs>
<clipPath id="clip0_2_8851">
<rect width="32" height="32" fill="white"/>
</clipPath>
</defs>
</svg>
