<svg width="22" height="24" viewBox="0 0 22 24" fill="none" xmlns="http://www.w3.org/2000/svg">
<path d="M21.2 12.0281C21.2 7.37337 18.0547 3.314 13.5453 2.15618C13.1141 2.04368 12.6734 2.30618 12.5656 2.73743C12.4531 3.16868 12.7156 3.60931 13.1469 3.71712C16.9391 4.68743 19.5875 8.10931 19.5875 12.0281C19.5875 15.4827 17.5297 18.5437 14.45 19.889L15.1953 18.1546C15.3687 17.7468 15.1812 17.2734 14.7734 17.0952C14.3656 16.9218 13.8922 17.1093 13.7141 17.5171L12.2609 20.9015C12.0875 21.3093 12.275 21.7827 12.6828 21.9609L16.0672 23.414C16.5734 23.5921 16.9953 23.2968 17.1266 22.9921C17.3 22.5843 17.1125 22.1109 16.7047 21.9327L15.2328 21.2999C18.8187 19.6781 21.2 16.0781 21.2 12.0281Z" fill="#607D8B"/>
<path d="M8.8625 20.339C5.07031 19.364 2.42187 15.9468 2.42187 12.0281C2.42187 8.62027 4.42343 5.59683 7.43281 4.2234L6.73437 5.84527C6.56093 6.25308 6.73906 6.74527 7.15625 6.90464C7.64375 7.08746 8.05625 6.86715 8.21562 6.48277L9.66875 3.09371C9.80937 2.76558 9.80468 2.2734 9.24687 2.03433L5.8625 0.581208C5.45468 0.407771 4.98125 0.595271 4.80312 1.00308C4.62968 1.4109 4.81718 1.88433 5.225 2.06246L6.8 2.73746C3.2 4.36402 0.809372 7.96871 0.809372 12.0281C0.809372 16.6828 3.95937 20.7375 8.46406 21.9C9.00781 22.0406 9.35 21.6843 9.44375 21.3187C9.55156 20.8875 9.29375 20.4515 8.8625 20.339Z" fill="#607D8B"/>
<path d="M12.9031 15.0655C13.3156 14.6343 13.5219 14.0905 13.5219 13.4437C13.5219 13.1483 13.4703 12.8765 13.3719 12.6233C13.2734 12.3702 13.1328 12.1546 12.95 11.9671C12.7672 11.7843 12.5281 11.6296 12.2375 11.4983C12.0828 11.4327 11.7734 11.339 11.3 11.2218V8.53115C11.6047 8.59209 11.8437 8.72334 12.0219 8.92022C12.1953 9.11709 12.3125 9.39834 12.3687 9.76396L13.3344 9.61865C13.25 9.02803 13.0062 8.55928 12.5984 8.22178C12.2797 7.95459 11.8484 7.79521 11.3047 7.74365V7.29834H10.7516V7.74365C10.1328 7.80459 9.66406 7.97803 9.35 8.25459C8.87656 8.66709 8.64218 9.20615 8.64218 9.87178C8.64218 10.2468 8.72187 10.5796 8.88593 10.8749C9.04531 11.1702 9.275 11.3999 9.575 11.564C9.97812 11.789 10.3719 11.939 10.7562 12.0093V14.9858C10.3906 14.9483 10.0719 14.7608 9.80937 14.428C9.62656 14.1937 9.49531 13.8233 9.425 13.3218L8.48281 13.4999C8.51562 13.9827 8.64218 14.3952 8.85312 14.7327C9.06406 15.0702 9.31718 15.314 9.6125 15.464C9.90312 15.614 10.2875 15.7171 10.7516 15.778V16.7108H11.3047V15.764C11.9609 15.7312 12.4953 15.4968 12.9031 15.0655ZM10.7562 11.1046C10.3297 10.978 10.0297 10.8046 9.85156 10.589C9.67343 10.3733 9.58437 10.1062 9.58437 9.7874C9.58437 9.46396 9.6875 9.1874 9.89843 8.95303C10.1094 8.71865 10.3953 8.57334 10.7562 8.51709V11.1046ZM12.2047 14.5077C11.9656 14.7796 11.6656 14.9343 11.3047 14.9812V12.1358C11.8062 12.2999 12.1437 12.4827 12.3125 12.689C12.4812 12.8952 12.5656 13.1671 12.5656 13.5093C12.5609 13.903 12.4437 14.2405 12.2047 14.5077Z" fill="#607D8B"/>
</svg>
