<svg width="60" height="59" viewBox="0 0 60 59" fill="none" xmlns="http://www.w3.org/2000/svg">
<path d="M30 32.3727C30.85 32.3727 31.563 32.0969 32.139 31.5453C32.715 30.9937 33.002 30.3119 33 29.4998V17.9365C33 17.1225 32.712 16.4521 32.136 15.9254C31.56 15.3988 30.848 15.1354 30 15.1354C29.15 15.1354 28.437 15.4112 27.861 15.9628C27.285 16.5144 26.998 17.1962 27 18.0083V29.5716C27 30.3856 27.288 31.056 27.864 31.5827C28.44 32.1093 29.152 32.3727 30 32.3727ZM30 43.8642C30.85 43.8642 31.563 43.5884 32.139 43.0368C32.715 42.4852 33.002 41.8034 33 40.9913C33 40.1774 32.712 39.4946 32.136 38.943C31.56 38.3914 30.848 38.1165 30 38.1185C29.15 38.1185 28.437 38.3943 27.861 38.9458C27.285 39.4974 26.998 40.1793 27 40.9913C27 41.8053 27.288 42.4881 27.864 43.0397C28.44 43.5913 29.152 43.8661 30 43.8642ZM30 58.2286C25.85 58.2286 21.95 57.474 18.3 55.9648C14.65 54.4556 11.475 52.4091 8.775 49.8254C6.075 47.2399 3.938 44.1994 2.364 40.704C0.79 37.2087 0.002 33.474 0 29.4998C0 25.5257 0.788 21.7909 2.364 18.2956C3.94 14.8002 6.077 11.7598 8.775 9.17417C11.475 6.58858 14.65 4.54213 18.3 3.03483C21.95 1.52752 25.85 0.772911 30 0.770996C34.15 0.770996 38.05 1.52561 41.7 3.03483C45.35 4.54405 48.525 6.5905 51.225 9.17417C53.925 11.7598 56.063 14.8002 57.639 18.2956C59.215 21.7909 60.002 25.5257 60 29.4998C60 33.474 59.212 37.2087 57.636 40.704C56.06 44.1994 53.923 47.2399 51.225 49.8254C48.525 52.411 45.35 54.4584 41.7 55.9677C38.05 57.4769 34.15 58.2305 30 58.2286Z" fill="#FF2A2A"/>
</svg>
