<svg width="29" height="29" viewBox="0 0 29 29" fill="none" xmlns="http://www.w3.org/2000/svg">
<path d="M28.7257 13.833L26.2648 11.3479L27.1535 7.96525C27.2856 7.46222 26.9879 6.94662 26.4863 6.80961L23.1125 5.8879L22.1908 2.51416C22.0537 2.0125 21.5383 1.71474 21.0352 1.84694L17.6526 2.73563L15.1674 0.27471C14.7979 -0.0912445 14.2025 -0.0912445 13.833 0.27471L11.3479 2.73563L7.96525 1.84699C7.46212 1.71479 6.94669 2.01255 6.80962 2.51422L5.88791 5.88795L2.51417 6.80967C2.01251 6.94674 1.7148 7.46233 1.84695 7.9653L2.73558 11.3479L0.274718 13.833C-0.0912368 14.2026 -0.0912368 14.7979 0.274718 15.1674L2.73563 17.6525L1.847 21.0352C1.71486 21.5382 2.01256 22.0538 2.51423 22.1908L5.88796 23.1125L6.80967 26.4862C6.94674 26.9879 7.46212 27.2857 7.96531 27.1535L11.3479 26.2648L13.833 28.7257C14.0178 28.9088 14.259 29.0002 14.5003 29.0002C14.7415 29.0002 14.9827 28.9088 15.1675 28.7257L17.6526 26.2648L21.0352 27.1535C21.5383 27.2855 22.0538 26.9879 22.1909 26.4862L23.1126 23.1125L26.4863 22.1908C26.988 22.0537 27.2857 21.5381 27.1535 21.0352L26.2649 17.6525L28.7258 15.1674C29.0917 14.7979 29.0917 14.2026 28.7257 13.833ZM7.54645 10.7072C7.54645 8.96433 8.96439 7.54639 10.7073 7.54639C12.4502 7.54639 13.8681 8.96433 13.8681 10.7072C13.8681 12.4501 12.4502 13.868 10.7073 13.868C8.96439 13.868 7.54645 12.4501 7.54645 10.7072ZM10.7456 19.5958C10.5604 19.781 10.3177 19.8736 10.0751 19.8736C9.83247 19.8736 9.58976 19.781 9.40466 19.5958C9.03434 19.2255 9.03434 18.6251 9.40466 18.2548L18.2549 9.40454C18.6252 9.03422 19.2256 9.03422 19.5959 9.40454C19.9662 9.77485 19.9662 10.3752 19.5959 10.7456L10.7456 19.5958ZM18.2933 21.454C16.5504 21.454 15.1324 20.0361 15.1324 18.2932C15.1324 16.5503 16.5504 15.1324 18.2933 15.1324C20.0361 15.1324 21.4541 16.5503 21.4541 18.2932C21.4541 20.0361 20.0361 21.454 18.2933 21.454Z" fill="white"/>
</svg>
