<svg width="31" height="31" viewBox="0 0 31 31" fill="none" xmlns="http://www.w3.org/2000/svg">
<g clip-path="url(#clip0_14_658)">
<path d="M30.6431 28.7715L28.1303 26.2587C28.7454 25.3216 29.1046 24.2022 29.1046 22.9998C29.1046 20.1329 27.0685 17.7331 24.3666 17.1692V13.9345C25.8227 13 26.7922 11.3715 26.8025 9.519C26.8027 9.51039 26.8032 9.50178 26.8032 9.49317C26.8032 9.49187 26.8033 9.49065 26.8033 9.48935C26.8033 9.48156 26.8022 9.47392 26.802 9.4662C26.8015 9.43477 26.8003 9.40326 26.7972 9.37158C26.7953 9.35152 26.7918 9.33195 26.7889 9.31213C26.786 9.29272 26.7838 9.2733 26.78 9.25397C26.7739 9.22238 26.7657 9.19143 26.7571 9.16089C26.7551 9.15366 26.754 9.14643 26.7518 9.13929L26.7501 9.1336C26.7491 9.13011 26.748 9.12645 26.747 9.12296L24.3152 1.01692C24.1606 0.501652 23.6863 0.148743 23.1483 0.148743H3.65499C3.11698 0.148743 2.64264 0.501652 2.48807 1.01692L0.0562868 9.1228C0.0551497 9.12629 0.0541751 9.12995 0.053038 9.13344L0.0513323 9.13912C0.0492205 9.14627 0.0480022 9.1535 0.0459717 9.16073C0.0374433 9.19135 0.0292399 9.2223 0.023067 9.25381C0.0192496 9.27314 0.0170566 9.29255 0.0142138 9.31196C0.0112899 9.33178 0.00779731 9.35136 0.00584798 9.37142C0.00276155 9.4031 0.00170566 9.43461 0.00105589 9.46604C0.00105589 9.47392 0 9.48147 0 9.48927C0 9.49057 8.1222e-05 9.49179 8.1222e-05 9.49309C8.1222e-05 9.5017 0.000568554 9.51031 0.000730998 9.51892C0.0110462 11.3715 0.980593 13 2.43666 13.9345V25.8127C2.43666 26.4855 2.98215 27.031 3.65499 27.031H18.7681C19.8574 28.2137 21.4175 28.9562 23.1483 28.9562C24.3507 28.9562 25.4702 28.5969 26.4074 27.9817L28.9202 30.4945C29.1581 30.7325 29.4699 30.8513 29.7817 30.8513C30.0936 30.8513 30.4054 30.7323 30.6433 30.4945C31.1189 30.0186 31.1189 29.2473 30.6431 28.7715ZM4.56151 2.5854H22.2418L24.3617 9.65155C24.2773 11.1438 23.0369 12.332 21.5239 12.332C19.9564 12.332 18.6811 11.0568 18.6811 9.48927C18.6811 8.81643 18.1357 8.27094 17.4628 8.27094C16.79 8.27094 16.2445 8.81643 16.2445 9.48927C16.2445 11.0568 14.9692 12.332 13.4017 12.332C11.8342 12.332 10.5589 11.0568 10.5589 9.48927C10.5589 8.81643 10.0135 8.27094 9.34061 8.27094C8.66777 8.27094 8.12228 8.81643 8.12228 9.48927C8.12228 11.0568 6.84701 12.332 5.27951 12.332C3.76651 12.332 2.52617 11.1438 2.4417 9.65155L4.56151 2.5854ZM4.87332 24.5944V14.7516C5.0075 14.7618 5.14265 14.7687 5.27943 14.7687C6.91077 14.7687 8.37131 14.0247 9.34053 12.8585C10.3098 14.0246 11.7703 14.7687 13.4016 14.7687C15.033 14.7687 16.4935 14.0247 17.4627 12.8585C18.432 14.0246 19.8925 14.7687 21.5238 14.7687C21.6606 14.7687 21.7958 14.7618 21.9299 14.7516V17.1693C19.228 17.7331 17.1919 20.133 17.1919 22.9999C17.1919 23.5522 17.2691 24.0865 17.4104 24.5944H4.87332ZM19.6286 22.9999C19.6286 21.0591 21.2075 19.4802 23.1483 19.4802C25.0891 19.4802 26.6679 21.0592 26.6679 22.9999C26.6679 24.9406 25.0891 26.5196 23.1483 26.5196C21.2075 26.5196 19.6286 24.9406 19.6286 22.9999Z" fill="white"/>
</g>
<defs>
<clipPath id="clip0_14_658">
<rect width="31" height="31" fill="white"/>
</clipPath>
</defs>
</svg>
