<svg width="47" height="47" viewBox="0 0 47 47" fill="none" xmlns="http://www.w3.org/2000/svg">
<path d="M4.7 37.9917V24.6751C4.7 24.2419 4.34906 23.8917 3.91666 23.8917C3.48426 23.8917 3.13333 24.2419 3.13333 24.6751V37.9917C3.13333 38.4249 3.48426 38.7751 3.91666 38.7751C4.34906 38.7751 4.7 38.4249 4.7 37.9917Z" fill="#5131E2"/>
<path d="M43.8667 37.9917V24.6751C43.8667 24.2419 43.5157 23.8917 43.0833 23.8917C42.6509 23.8917 42.3 24.2419 42.3 24.6751V37.9917C42.3 38.4249 42.6509 38.7751 43.0833 38.7751C43.5157 38.7751 43.8667 38.4249 43.8667 37.9917Z" fill="#5131E2"/>
<path d="M7.05 23.8917C6.6176 23.8917 6.26666 24.2419 6.26666 24.6751V31.7251C6.26666 32.1582 6.6176 32.5084 7.05 32.5084C7.4824 32.5084 7.83333 32.1582 7.83333 31.7251V24.6751C7.83333 24.2419 7.4824 23.8917 7.05 23.8917Z" fill="#5131E2"/>
<path d="M9.4 23.8917C8.9676 23.8917 8.61667 24.2419 8.61667 24.6751V31.7251C8.61667 32.1582 8.9676 32.5084 9.4 32.5084C9.8324 32.5084 10.1833 32.1582 10.1833 31.7251V24.6751C10.1833 24.2419 9.8324 23.8917 9.4 23.8917Z" fill="#5131E2"/>
<path d="M14.1 31.7251V24.6751C14.1 24.2419 13.7491 23.8917 13.3167 23.8917C12.8843 23.8917 12.5333 24.2419 12.5333 24.6751V31.7251C12.5333 32.1582 12.8843 32.5084 13.3167 32.5084C13.7491 32.5084 14.1 32.1582 14.1 31.7251Z" fill="#5131E2"/>
<path d="M16.45 31.7251V24.6751C16.45 24.2419 16.0991 23.8917 15.6667 23.8917C15.2343 23.8917 14.8833 24.2419 14.8833 24.6751V31.7251C14.8833 32.1582 15.2343 32.5084 15.6667 32.5084C16.0991 32.5084 16.45 32.1582 16.45 31.7251Z" fill="#5131E2"/>
<path d="M18.8 31.7251V24.6751C18.8 24.2419 18.4491 23.8917 18.0167 23.8917C17.5843 23.8917 17.2333 24.2419 17.2333 24.6751V31.7251C17.2333 32.1582 17.5843 32.5084 18.0167 32.5084C18.4491 32.5084 18.8 32.1582 18.8 31.7251Z" fill="#5131E2"/>
<path d="M23.5 31.7251V24.6751C23.5 24.2419 23.1491 23.8917 22.7167 23.8917C22.2843 23.8917 21.9333 24.2419 21.9333 24.6751V31.7251C21.9333 32.1582 22.2843 32.5084 22.7167 32.5084C23.1491 32.5084 23.5 32.1582 23.5 31.7251Z" fill="#5131E2"/>
<path d="M27.4167 24.6751C27.4167 24.2419 27.0657 23.8917 26.6333 23.8917C26.2009 23.8917 25.85 24.2419 25.85 24.6751V31.7251C25.85 32.1582 26.2009 32.5084 26.6333 32.5084C27.0657 32.5084 27.4167 32.1582 27.4167 31.7251V24.6751Z" fill="#5131E2"/>
<path d="M29.7667 24.6751C29.7667 24.2419 29.4157 23.8917 28.9833 23.8917C28.5509 23.8917 28.2 24.2419 28.2 24.6751V31.7251C28.2 32.1582 28.5509 32.5084 28.9833 32.5084C29.4157 32.5084 29.7667 32.1582 29.7667 31.7251V24.6751Z" fill="#5131E2"/>
<path d="M32.9 23.8917C32.4676 23.8917 32.1167 24.2419 32.1167 24.6751V31.7251C32.1167 32.1582 32.4676 32.5084 32.9 32.5084C33.3324 32.5084 33.6833 32.1582 33.6833 31.7251V24.6751C33.6833 24.2419 33.3324 23.8917 32.9 23.8917Z" fill="#5131E2"/>
<path d="M35.25 23.8917C34.8176 23.8917 34.4667 24.2419 34.4667 24.6751V31.7251C34.4667 32.1582 34.8176 32.5084 35.25 32.5084C35.6824 32.5084 36.0333 32.1582 36.0333 31.7251V24.6751C36.0333 24.2419 35.6824 23.8917 35.25 23.8917Z" fill="#5131E2"/>
<path d="M39.95 32.5084C40.3824 32.5084 40.7333 32.1582 40.7333 31.7251V24.6751C40.7333 24.2419 40.3824 23.8917 39.95 23.8917C39.5176 23.8917 39.1667 24.2419 39.1667 24.6751V31.7251C39.1667 32.1582 39.5176 32.5084 39.95 32.5084Z" fill="#5131E2"/>
<path d="M3.13333 9.00831V19.975C3.13333 20.4082 3.48426 20.7583 3.91666 20.7583C4.34906 20.7583 4.7 20.4082 4.7 19.975V9.00831C4.7 8.57513 4.34906 8.22498 3.91666 8.22498C3.48426 8.22498 3.13333 8.57513 3.13333 9.00831Z" fill="#5131E2"/>
<path d="M43.8667 19.975V9.00831C43.8667 8.57513 43.5157 8.22498 43.0833 8.22498C42.6509 8.22498 42.3 8.57513 42.3 9.00831V19.975C42.3 20.4082 42.6509 20.7583 43.0833 20.7583C43.5157 20.7583 43.8667 20.4082 43.8667 19.975Z" fill="#5131E2"/>
<path d="M6.26666 19.975C6.26666 20.4082 6.6176 20.7583 7.05 20.7583C7.4824 20.7583 7.83333 20.4082 7.83333 19.975V9.00831C7.83333 8.57513 7.4824 8.22498 7.05 8.22498C6.6176 8.22498 6.26666 8.57513 6.26666 9.00831V19.975Z" fill="#5131E2"/>
<path d="M9.4 20.7583C9.8324 20.7583 10.1833 20.4082 10.1833 19.975V9.00831C10.1833 8.57513 9.8324 8.22498 9.4 8.22498C8.9676 8.22498 8.61667 8.57513 8.61667 9.00831V19.975C8.61667 20.4082 8.9676 20.7583 9.4 20.7583Z" fill="#5131E2"/>
<path d="M13.3167 20.7583C13.7491 20.7583 14.1 20.4082 14.1 19.975V9.00831C14.1 8.57513 13.7491 8.22498 13.3167 8.22498C12.8843 8.22498 12.5333 8.57513 12.5333 9.00831V19.975C12.5333 20.4082 12.8843 20.7583 13.3167 20.7583Z" fill="#5131E2"/>
<path d="M15.6667 20.7583C16.0991 20.7583 16.45 20.4082 16.45 19.975V9.00831C16.45 8.57513 16.0991 8.22498 15.6667 8.22498C15.2343 8.22498 14.8833 8.57513 14.8833 9.00831V19.975C14.8833 20.4082 15.2343 20.7583 15.6667 20.7583Z" fill="#5131E2"/>
<path d="M18.0167 20.7583C18.4491 20.7583 18.8 20.4082 18.8 19.975V9.00831C18.8 8.57513 18.4491 8.22498 18.0167 8.22498C17.5843 8.22498 17.2333 8.57513 17.2333 9.00831V19.975C17.2333 20.4082 17.5843 20.7583 18.0167 20.7583Z" fill="#5131E2"/>
<path d="M22.7167 20.7583C23.1491 20.7583 23.5 20.4082 23.5 19.975V9.00831C23.5 8.57513 23.1491 8.22498 22.7167 8.22498C22.2843 8.22498 21.9333 8.57513 21.9333 9.00831V19.975C21.9333 20.4082 22.2843 20.7583 22.7167 20.7583Z" fill="#5131E2"/>
<path d="M26.6333 20.7583C27.0657 20.7583 27.4167 20.4082 27.4167 19.975V9.00831C27.4167 8.57513 27.0657 8.22498 26.6333 8.22498C26.2009 8.22498 25.85 8.57513 25.85 9.00831V19.975C25.85 20.4082 26.2009 20.7583 26.6333 20.7583Z" fill="#5131E2"/>
<path d="M28.9833 20.7583C29.4157 20.7583 29.7667 20.4082 29.7667 19.975V9.00831C29.7667 8.57513 29.4157 8.22498 28.9833 8.22498C28.5509 8.22498 28.2 8.57513 28.2 9.00831V19.975C28.2 20.4082 28.5509 20.7583 28.9833 20.7583Z" fill="#5131E2"/>
<path d="M32.9 20.7583C33.3324 20.7583 33.6833 20.4082 33.6833 19.975V9.00831C33.6833 8.57513 33.3324 8.22498 32.9 8.22498C32.4676 8.22498 32.1167 8.57513 32.1167 9.00831V19.975C32.1167 20.4082 32.4676 20.7583 32.9 20.7583Z" fill="#5131E2"/>
<path d="M35.25 20.7583C35.6824 20.7583 36.0333 20.4082 36.0333 19.975V9.00831C36.0333 8.57513 35.6824 8.22498 35.25 8.22498C34.8176 8.22498 34.4667 8.57513 34.4667 9.00831V19.975C34.4667 20.4082 34.8176 20.7583 35.25 20.7583Z" fill="#5131E2"/>
<path d="M39.95 20.7583C40.3824 20.7583 40.7333 20.4082 40.7333 19.975V9.00831C40.7333 8.57513 40.3824 8.22498 39.95 8.22498C39.5176 8.22498 39.1667 8.57513 39.1667 9.00831V19.975C39.1667 20.4082 39.5176 20.7583 39.95 20.7583Z" fill="#5131E2"/>
<path d="M7.05 34.8584C6.6176 34.8584 6.26666 35.2085 6.26666 35.6417V36.4251C6.26666 36.8582 6.6176 37.2084 7.05 37.2084C7.4824 37.2084 7.83333 36.8582 7.83333 36.4251V35.6417C7.83333 35.2085 7.4824 34.8584 7.05 34.8584Z" fill="#5131E2"/>
<path d="M9.4 34.8584C8.9676 34.8584 8.61667 35.2085 8.61667 35.6417V36.4251C8.61667 36.8582 8.9676 37.2084 9.4 37.2084C9.8324 37.2084 10.1833 36.8582 10.1833 36.4251V35.6417C10.1833 35.2085 9.8324 34.8584 9.4 34.8584Z" fill="#5131E2"/>
<path d="M11.75 34.8584C11.3176 34.8584 10.9667 35.2085 10.9667 35.6417V36.4251C10.9667 36.8582 11.3176 37.2084 11.75 37.2084C12.1824 37.2084 12.5333 36.8582 12.5333 36.4251V35.6417C12.5333 35.2085 12.1824 34.8584 11.75 34.8584Z" fill="#5131E2"/>
<path d="M14.1 34.8584C13.6676 34.8584 13.3167 35.2085 13.3167 35.6417V36.4251C13.3167 36.8582 13.6676 37.2084 14.1 37.2084C14.5324 37.2084 14.8833 36.8582 14.8833 36.4251V35.6417C14.8833 35.2085 14.5324 34.8584 14.1 34.8584Z" fill="#5131E2"/>
<path d="M16.45 34.8584C16.0176 34.8584 15.6667 35.2085 15.6667 35.6417V36.4251C15.6667 36.8582 16.0176 37.2084 16.45 37.2084C16.8824 37.2084 17.2333 36.8582 17.2333 36.4251V35.6417C17.2333 35.2085 16.8824 34.8584 16.45 34.8584Z" fill="#5131E2"/>
<path d="M18.8 34.8584C18.3676 34.8584 18.0167 35.2085 18.0167 35.6417V36.4251C18.0167 36.8582 18.3676 37.2084 18.8 37.2084C19.2324 37.2084 19.5833 36.8582 19.5833 36.4251V35.6417C19.5833 35.2085 19.2324 34.8584 18.8 34.8584Z" fill="#5131E2"/>
<path d="M21.15 34.8584C20.7176 34.8584 20.3667 35.2085 20.3667 35.6417V36.4251C20.3667 36.8582 20.7176 37.2084 21.15 37.2084C21.5824 37.2084 21.9333 36.8582 21.9333 36.4251V35.6417C21.9333 35.2085 21.5824 34.8584 21.15 34.8584Z" fill="#5131E2"/>
<path d="M23.5 34.8584C23.0676 34.8584 22.7167 35.2085 22.7167 35.6417V36.4251C22.7167 36.8582 23.0676 37.2084 23.5 37.2084C23.9324 37.2084 24.2833 36.8582 24.2833 36.4251V35.6417C24.2833 35.2085 23.9324 34.8584 23.5 34.8584Z" fill="#5131E2"/>
<path d="M25.85 34.8584C25.4176 34.8584 25.0667 35.2085 25.0667 35.6417V36.4251C25.0667 36.8582 25.4176 37.2084 25.85 37.2084C26.2824 37.2084 26.6333 36.8582 26.6333 36.4251V35.6417C26.6333 35.2085 26.2824 34.8584 25.85 34.8584Z" fill="#5131E2"/>
<path d="M28.2 34.8584C27.7676 34.8584 27.4167 35.2085 27.4167 35.6417V36.4251C27.4167 36.8582 27.7676 37.2084 28.2 37.2084C28.6324 37.2084 28.9833 36.8582 28.9833 36.4251V35.6417C28.9833 35.2085 28.6324 34.8584 28.2 34.8584Z" fill="#5131E2"/>
<path d="M30.55 34.8584C30.1176 34.8584 29.7667 35.2085 29.7667 35.6417V36.4251C29.7667 36.8582 30.1176 37.2084 30.55 37.2084C30.9824 37.2084 31.3333 36.8582 31.3333 36.4251V35.6417C31.3333 35.2085 30.9824 34.8584 30.55 34.8584Z" fill="#5131E2"/>
<path d="M32.9 34.8584C32.4676 34.8584 32.1167 35.2085 32.1167 35.6417V36.4251C32.1167 36.8582 32.4676 37.2084 32.9 37.2084C33.3324 37.2084 33.6833 36.8582 33.6833 36.4251V35.6417C33.6833 35.2085 33.3324 34.8584 32.9 34.8584Z" fill="#5131E2"/>
<path d="M35.25 34.8584C34.8176 34.8584 34.4667 35.2085 34.4667 35.6417V36.4251C34.4667 36.8582 34.8176 37.2084 35.25 37.2084C35.6824 37.2084 36.0333 36.8582 36.0333 36.4251V35.6417C36.0333 35.2085 35.6824 34.8584 35.25 34.8584Z" fill="#5131E2"/>
<path d="M37.6 34.8584C37.1676 34.8584 36.8167 35.2085 36.8167 35.6417V36.4251C36.8167 36.8582 37.1676 37.2084 37.6 37.2084C38.0324 37.2084 38.3833 36.8582 38.3833 36.4251V35.6417C38.3833 35.2085 38.0324 34.8584 37.6 34.8584Z" fill="#5131E2"/>
<path d="M40.7333 35.6417C40.7333 35.2085 40.3824 34.8584 39.95 34.8584C39.5176 34.8584 39.1667 35.2085 39.1667 35.6417V36.4251C39.1667 36.8582 39.5176 37.2084 39.95 37.2084C40.3824 37.2084 40.7333 36.8582 40.7333 36.4251V35.6417Z" fill="#5131E2"/>
<path d="M6.26667 41.9084H1.56667V37.9917C1.56667 37.5585 1.21573 37.2084 0.783333 37.2084C0.350933 37.2084 0 37.5585 0 37.9917V43.475H6.26667C6.69907 43.475 7.05 43.1249 7.05 42.6917C7.05 42.2585 6.69907 41.9084 6.26667 41.9084Z" fill="#5131E2"/>
<path d="M46.2167 37.2084C45.7843 37.2084 45.4333 37.5585 45.4333 37.9917V41.9084H41.5167C41.0843 41.9084 40.7333 42.2585 40.7333 42.6917C40.7333 43.1249 41.0843 43.475 41.5167 43.475H47V37.9917C47 37.5585 46.6491 37.2084 46.2167 37.2084Z" fill="#5131E2"/>
<path d="M40.7333 3.52502C40.3009 3.52502 39.95 3.87517 39.95 4.30836C39.95 4.74154 40.3009 5.09169 40.7333 5.09169H45.4333V9.00836C45.4333 9.44154 45.7843 9.79169 46.2167 9.79169C46.6491 9.79169 47 9.44154 47 9.00836V3.52502H40.7333Z" fill="#5131E2"/>
<path d="M0.783333 9.79169C1.21573 9.79169 1.56667 9.44154 1.56667 9.00836V5.09169H5.48333C5.91573 5.09169 6.26667 4.74154 6.26667 4.30836C6.26667 3.87517 5.91573 3.52502 5.48333 3.52502H0V9.00836C0 9.44154 0.350933 9.79169 0.783333 9.79169Z" fill="#5131E2"/>
<path d="M46.2167 21.5417H0.783333C0.350933 21.5417 0 21.8919 0 22.3251C0 22.7583 0.350933 23.1084 0.783333 23.1084H46.2167C46.6491 23.1084 47 22.7583 47 22.3251C47 21.8919 46.6491 21.5417 46.2167 21.5417Z" fill="#5131E2"/>
</svg>
