<svg width="60" height="60" viewBox="0 0 60 60" fill="none" xmlns="http://www.w3.org/2000/svg">
<path d="M30.4078 0.749788C13.9575 0.527601 0.527845 13.9573 0.750032 30.4076C0.969407 46.1843 13.8155 59.0304 29.5922 59.2498C46.0453 59.4748 59.4722 46.0451 59.2472 29.5948C59.0307 13.8153 46.1846 0.969163 30.4078 0.749788ZM28.0468 27.8159L35.296 19.519C35.6887 19.0696 36.2439 18.7946 36.8394 18.7545C37.4348 18.7144 38.0219 18.9125 38.4713 19.3053C38.9207 19.698 39.1957 20.2532 39.2358 20.8486C39.2759 21.4441 39.0778 22.0312 38.685 22.4806L31.4358 30.7774C31.2414 31 31.005 31.182 30.7402 31.3132C30.4753 31.4444 30.1873 31.5221 29.8924 31.5419C29.5976 31.5618 29.3017 31.5234 29.0217 31.4289C28.7417 31.3344 28.483 31.1857 28.2605 30.9912C28.038 30.7967 27.8559 30.5604 27.7248 30.2955C27.5936 30.0307 27.5158 29.7427 27.496 29.4478C27.4761 29.153 27.5146 28.8571 27.6091 28.5771C27.7036 28.2971 27.8523 28.0384 28.0468 27.8159ZM22.5821 40.5917C22.1602 41.0133 21.5881 41.2502 20.9916 41.2502C20.3951 41.2502 19.823 41.0133 19.4011 40.5917L12.6582 33.8417C12.4493 33.6326 12.2837 33.3845 12.1707 33.1114C12.0577 32.8383 11.9996 32.5457 11.9998 32.2502C11.9999 31.9547 12.0582 31.6621 12.1714 31.3891C12.2847 31.1162 12.4505 30.8682 12.6596 30.6593C12.8686 30.4505 13.1168 30.2848 13.3898 30.1719C13.6629 30.0589 13.9555 30.0008 14.251 30.0009C14.5465 30.0011 14.8391 30.0594 15.1121 30.1726C15.3851 30.2858 15.633 30.4517 15.8419 30.6607L22.5919 37.4107C23.0122 37.8339 23.2473 38.4067 23.2455 39.0032C23.2436 39.5997 23.005 40.1711 22.5821 40.5917ZM47.4446 22.4806L31.7114 40.4806C31.5087 40.7128 31.2605 40.901 30.982 41.0333C30.7036 41.1656 30.4009 41.2393 30.0928 41.2498H30.0169C29.7212 41.2498 29.4285 41.1916 29.1553 41.0784C28.8822 40.9653 28.634 40.7994 28.425 40.5903L21.6835 33.8403C21.2617 33.4181 21.0248 32.8456 21.0251 32.2488C21.0254 31.652 21.2627 31.0797 21.6849 30.6579C22.1071 30.2361 22.6795 29.9993 23.2763 29.9995C23.8731 29.9998 24.4454 30.2371 24.8672 30.6593L29.0578 34.8542C29.1668 34.9631 29.2969 35.0486 29.4403 35.1052C29.5836 35.1618 29.737 35.1883 29.891 35.1832C30.045 35.178 30.1963 35.1413 30.3355 35.0753C30.4747 35.0092 30.5989 34.9153 30.7003 34.7993L44.0597 19.519C44.4524 19.0696 45.0076 18.7946 45.6031 18.7545C46.1986 18.7144 46.7856 18.9125 47.235 19.3053C47.6844 19.698 47.9594 20.2532 47.9995 20.8486C48.0396 21.4441 47.8415 22.0312 47.4488 22.4806H47.4446Z" fill="#13DC02"/>
</svg>
